inDegrees=no
num_controls=7
num_derivatives=13
num_iterations=163
num_multipliers=7
num_parameters=0
num_slacks=7
num_states=26
objective=0.493911
objective_accelerations=0.010943
objective_balance=0.003940
objective_effort=0.016784
objective_height=0.361371
objective_ligament=0.100873
solver_duration=2232.725322
status=Solve_Succeeded
success=true
DataType=double
version=3
OpenSimVersion=4.5
endheader
time	/jointset/ground_pelvis/pelvis_tilt/value	/jointset/ground_pelvis/pelvis_tx/value	/jointset/ground_pelvis/pelvis_ty/value	/jointset/hip_l/hip_flexion_l/value	/jointset/hip_l/hip_adduction_l/value	/jointset/hip_l/hip_rotation_l/value	/jointset/back/lumbar_extension/value	/jointset/patellofemoral_l/patellar_flexion_l/value	/jointset/knee_l/knee_flexion_l/value	/jointset/knee_l/knee_adduction_l/value	/jointset/knee_l/knee_rotation_l/value	/jointset/ankle_l/ankle_angle_l/value	/jointset/subtalar_l/subtalar_angle_l/value	/jointset/ground_pelvis/pelvis_tilt/speed	/jointset/ground_pelvis/pelvis_tx/speed	/jointset/ground_pelvis/pelvis_ty/speed	/jointset/hip_l/hip_flexion_l/speed	/jointset/hip_l/hip_adduction_l/speed	/jointset/hip_l/hip_rotation_l/speed	/jointset/back/lumbar_extension/speed	/jointset/patellofemoral_l/patellar_flexion_l/speed	/jointset/knee_l/knee_flexion_l/speed	/jointset/knee_l/knee_adduction_l/speed	/jointset/knee_l/knee_rotation_l/speed	/jointset/ankle_l/ankle_angle_l/speed	/jointset/subtalar_l/subtalar_angle_l/speed	/forceset/tau_hip_flexion_l	/forceset/tau_hip_adduction_l	/forceset/tau_hip_rotation_l	/forceset/tau_knee_flexion_l	/forceset/tau_ankle_angle_l	/forceset/tau_subtalar_angle_l	/forceset/tau_lumbar_extension	lambda_cid13_p0	lambda_cid13_p1	lambda_cid13_p2	lambda_cid13_p3	lambda_cid13_p4	lambda_cid13_p5	lambda_cid14_p0	/jointset/ground_pelvis/pelvis_tilt/accel	/jointset/ground_pelvis/pelvis_tx/accel	/jointset/ground_pelvis/pelvis_ty/accel	/jointset/hip_l/hip_flexion_l/accel	/jointset/hip_l/hip_adduction_l/accel	/jointset/hip_l/hip_rotation_l/accel	/jointset/back/lumbar_extension/accel	/jointset/patellofemoral_l/patellar_flexion_l/accel	/jointset/knee_l/knee_flexion_l/accel	/jointset/knee_l/knee_adduction_l/accel	/jointset/knee_l/knee_rotation_l/accel	/jointset/ankle_l/ankle_angle_l/accel	/jointset/subtalar_l/subtalar_angle_l/accel	gamma_cid13_p0	gamma_cid13_p1	gamma_cid13_p2	gamma_cid13_p3	gamma_cid13_p4	gamma_cid13_p5	gamma_cid14_p0
0.5	-0.03719292293012413	-0.02908564321402798	0.891798414075921	0.5470593444904793	-0.2654832815680457	-0.2643789018982087	-0.7613199993592898	0.4394687651696936	0.4394687651697642	-0.05257283950927029	-0.1744992116752047	-0.01687088804659194	0.02542590384342733	-0.06773986423505976	-0.1478843306645443	-0.0929083573767237	0.5532292889662718	-0.06035378218773492	0.1542622006819838	-0.8558158354487837	0.4713745499476331	0.4713745499476101	0.002881712828036817	0.0001264543974817757	-0.0116128947852342	-0.06849497176214382	-0.2257778095024121	0.03092114390026406	-0.007454053811866005	-0.1161724600450634	0.0982386688327222	0.04548598477875696	0.2974836994067929	-13.49654144649513	-19.02303994805647	4.44219182641225	-1.11317000484714	-710.9142249073661	-80.44146396863691	-23.63714326966267	0.02515447739774078	0.3641853199410008	0.06872481648192333	-0.8533537178338386	-0.01707749943400466	-0.1305185644954942	1.360039273420065	-0.6254790649086286	-0.6254790649086793	-0.2944187291416685	-0.001693904518662659	0.1473550941154513	0.03973952740773697	-5.62101108661125e-09	7.598148352875055e-09	2.561056229175565e-08	-6.179292069557908e-10	5.0981718061281e-09	2.178154691101256e-09	-3.999877981185248e-09
0.51	-0.03786906349894212	-0.0305461776734306	0.8908729448122426	0.5525483588946195	-0.2660875539645846	-0.2628429717692731	-0.7698089238203331	0.4441504729921216	0.4441504729921397	-0.05255868816921824	-0.1744979825099059	-0.0169797897745025	0.02474301203681857	-0.06747403464643366	-0.1442120501589018	-0.0921648197611552	0.5444932087127551	-0.06048151101891361	0.1528931585481874	-0.8418582962029839	0.4648841206674487	0.4648841206674289	-2.879933742361111e-05	0.0001177137209335323	-0.01017928069474414	-0.06806781052653264	-0.2308995026860842	0.03207590224878169	-0.007470041987222448	-0.1146954839476304	0.09650262784956809	0.04644934301220366	0.3025062650543767	-14.11738752535536	-19.32471235722048	4.481139091265336	-0.9529768929692454	-712.6484242442592	-80.49855092314793	-23.60885388659567	0.02942791816882944	0.3703259134529946	0.08027085080762048	-0.8957940413731231	-0.007746349253423846	-0.1447002663258157	1.430225333754336	-0.6732581620708837	-0.6732581620704053	-0.2859675891504058	-0.0007094613718019795	0.1395899111621687	0.04653690994453531	-5.42643138325099e-09	1.0057222558738e-08	2.523573456290195e-08	-1.024675315067775e-09	7.401735396408437e-09	2.080584586407344e-09	-3.751350720101729e-09
0.52	-0.03854211962815691	-0.03196967402826147	0.8899555314480625	0.5579476007237725	-0.2666925288042918	-0.2613216527073787	-0.7781549500721993	0.4487647898612468	0.4487647898612154	-0.05257296197660426	-0.1744968898138003	-0.01707471029257719	0.02406485834022726	-0.06712297631485843	-0.1404767097501908	-0.09129717747705132	0.5352747739687341	-0.06049427082183598	0.1513399872742281	-0.8272361936134066	0.457896359287363	0.4578963592873465	-0.002803316658970771	9.916055842940563e-05	-0.008816652818398269	-0.06754734975865208	-0.2360211958697635	0.03323066059729494	-0.007486030162597949	-0.1132185078501978	0.09476658686641373	0.04741270124564605	0.307528830701956	-14.74212183973178	-19.6260841403774	4.520472730597711	-0.8031456294017251	-714.4472446672397	-80.56614897546714	-23.57840649341063	0.04220022598755951	0.3767973005547158	0.09354575018899966	-0.9498246159347216	0.005916306217246484	-0.1673443925281175	1.492951942175588	-0.7249454848888778	-0.7249454848889034	-0.267219760359021	-0.003656401709878684	0.1331578512866418	0.05839943386161608	-5.133150522587596e-09	1.223481011402585e-08	2.464277284411716e-08	-1.468086715895954e-09	9.455640583154017e-09	1.971704824966524e-09	-3.47077765250509e-09
0.53	-0.0392112544248364	-0.03335553015769609	0.8890474053681019	0.5632523372054165	-0.2672970553061392	-0.2598167556164698	-0.7863515108295966	0.453306810174598	0.4533068101745641	-0.05261427613580153	-0.1744960084545487	-0.01715636251633246	0.0233923755439032	-0.06668954629022433	-0.1366866249843684	-0.09030772757332352	0.5255960902287384	-0.0603926875826107	0.1496088736594235	-0.8119748817581475	0.4504274916397398	0.4504274916397092	-0.005436825730441972	7.531803176876823e-05	-0.007527609949671314	-0.0669352053265802	-0.2409051099134669	0.03428963820723735	-0.007498587066338227	-0.1118944699388883	0.09316149874279846	0.04832998370350196	0.3123307832603444	-15.32179736386171	-19.91391520460101	4.556026173217641	-0.6488265604561508	-716.1404322389861	-80.6303622725459	-23.54592721329787	0.04607822279075638	0.3812973973125628	0.1046933586268632	-0.9883565381707332	0.01502613925123921	-0.1805809540785515	1.557882223459969	-0.7698885014774127	-0.7698885014795143	-0.2580091884573309	-0.002013180678370651	0.1247047610397019	0.06471764613315566	-4.83035256500388e-09	1.415156912538949e-08	2.392092620625085e-08	-1.902246635027611e-09	1.144202651769959e-08	1.83365658776193e-09	-3.200892063261737e-09
